<?xml version="1.0" standalone="no"?>
<!DOCTYPE svg PUBLIC "-//W3C//DTD SVG 20010904//EN"
 "http://www.w3.org/TR/2001/REC-SVG-20010904/DTD/svg10.dtd">
<svg version="1.0" xmlns="http://www.w3.org/2000/svg"
 width="640.000000pt" height="640.000000pt" viewBox="0 0 640.000000 640.000000"
 preserveAspectRatio="xMidYMid meet">

<g transform="translate(0.000000,640.000000) scale(0.100000,-0.100000)"
fill="var(--background)" stroke="none">
<path d="M0 3200 l0 -3200 3200 0 3200 0 0 3200 0 3200 -3200 0 -3200 0 0
-3200z m3256 2472 c13 -8 27 -881 14 -902 -4 -6 -10 -11 -14 -10 -4 1 -10 0
-14 -3 -4 -2 -2 -2 5 -1 6 2 17 -4 24 -12 12 -14 19 -15 16 -3 -1 4 7 17 18
30 l20 24 -22 -19 c-13 -11 -23 -14 -23 -8 0 14 35 34 44 25 10 -10 35 -12 41
-3 8 13 57 -1 51 -16 -3 -7 -1 -16 5 -19 5 -4 9 -3 8 2 -4 23 4 31 30 29 16 0
28 -3 26 -6 -2 -3 3 -10 10 -17 10 -10 16 -9 25 1 12 15 27 16 50 1 8 -5 22
-10 30 -10 8 0 14 -5 13 -11 -1 -6 4 -11 12 -11 8 0 12 5 8 10 -3 5 4 4 16 -2
11 -7 20 -16 18 -22 -1 -6 6 -13 16 -14 9 -2 15 1 11 6 -3 5 -11 6 -17 3 -7
-4 -8 -3 -4 1 9 11 39 16 33 6 -3 -4 -1 -13 4 -21 10 -16 50 -24 50 -11 0 6
-8 8 -18 6 -10 -2 -19 2 -19 9 0 15 41 13 80 -2 33 -14 35 -22 5 -16 -17 3
-15 1 5 -7 24 -9 26 -13 15 -27 -12 -15 -11 -16 4 -3 10 7 15 17 12 22 -3 5 2
6 10 3 9 -3 16 -10 16 -14 0 -5 9 -7 19 -5 11 2 27 -6 38 -17 10 -12 12 -18 4
-13 -10 6 -12 4 -7 -4 6 -9 11 -9 21 -1 9 7 16 6 25 -5 7 -8 16 -13 20 -10 4
2 15 -4 25 -15 10 -11 21 -17 26 -15 4 3 10 1 13 -4 4 -5 1 -13 -5 -17 -8 -5
-9 -3 -4 7 8 12 6 12 -8 0 -9 -7 -17 -16 -17 -19 0 -3 3 -2 7 1 3 4 13 1 21
-6 13 -9 14 -9 8 1 -4 7 -1 12 8 12 20 0 88 -59 80 -71 -3 -5 2 -6 12 -2 13 5
15 2 9 -18 -4 -15 -3 -19 3 -11 12 18 59 -19 47 -37 -4 -8 -10 -9 -14 -4 -3 6
-17 -3 -30 -19 -13 -16 -17 -27 -10 -26 7 2 14 -3 15 -9 1 -7 2 -16 3 -19 0
-4 7 -1 14 5 8 6 16 9 19 6 2 -3 4 9 4 27 -1 17 5 33 12 36 9 3 11 -4 8 -22
-3 -14 -1 -28 4 -31 5 -3 7 4 5 15 -2 11 0 20 6 20 8 0 13 -15 10 -33 -1 -5 3
-6 8 -3 11 7 33 -18 24 -27 -3 -4 2 -7 11 -7 12 0 16 -5 12 -16 -3 -8 -2 -13
3 -9 5 3 24 -14 42 -37 19 -24 37 -46 42 -49 15 -11 46 -77 39 -84 -4 -4 0 -5
8 -3 8 2 14 -3 12 -9 -1 -7 2 -13 7 -13 6 0 8 -9 6 -20 -2 -11 0 -20 6 -20 5
0 8 -3 8 -7 -4 -23 2 -43 12 -41 6 2 13 -6 15 -16 1 -10 7 -22 12 -25 6 -3 18
-31 28 -61 9 -30 21 -61 27 -67 6 -9 6 -13 -2 -13 -7 0 -9 -5 -4 -12 4 -7 9
-22 10 -33 2 -11 6 -27 10 -35 15 -36 23 -94 28 -210 2 -52 4 -98 5 -102 0 -5
199 -8 443 -8 243 0 448 -4 455 -9 8 -5 12 -17 10 -27 -3 -18 -25 -19 -615
-22 l-612 -2 -6 -38 c-55 -353 -252 -637 -552 -794 -86 -45 -248 -103 -308
-110 l-30 -3 -5 128 -5 129 -33 29 c-18 16 -39 29 -47 29 -12 0 -15 13 -15 59
l0 59 125 4 c106 3 129 7 152 24 55 41 53 104 -3 104 -20 0 -23 4 -19 23 2 12
20 94 40 182 34 158 101 449 131 575 8 36 31 129 50 207 19 79 34 147 34 153
0 6 -27 10 -64 10 -75 0 -75 0 -314 211 -164 146 -172 160 -121 212 23 22 30
37 27 61 -1 20 2 30 10 29 17 -4 15 1 -10 23 -22 19 -22 19 -8 -1 11 -15 8
-14 -16 5 -17 14 -30 27 -29 30 2 3 -18 5 -43 5 -39 0 -51 -5 -74 -30 -25 -28
-34 -19 -13 15 8 13 6 13 -8 2 -9 -8 -15 -19 -14 -25 1 -7 -4 -11 -11 -9 -8 1
-11 -2 -7 -8 3 -6 10 -8 14 -5 5 2 11 -16 14 -41 2 -24 12 -53 21 -63 36 -40
23 -60 -135 -201 -242 -216 -232 -210 -311 -210 -52 0 -68 -3 -68 -14 0 -8 29
-133 65 -278 106 -434 195 -816 195 -838 0 -14 -7 -20 -24 -20 -56 0 -59 -66
-3 -100 27 -17 50 -20 160 -20 l127 0 0 -65 c0 -55 -3 -65 -17 -65 -22 -1 -43
-17 -66 -50 -14 -20 -17 -48 -17 -147 l0 -122 -32 6 c-329 62 -611 271 -756
558 -40 81 -78 203 -92 303 l-12 82 -622 2 c-598 3 -621 4 -624 22 -2 10 2 22
10 27 7 5 213 9 458 9 l445 0 4 63 c2 34 4 81 5 105 0 23 3 42 7 42 3 0 6 15
6 33 0 51 12 89 26 80 7 -4 5 1 -3 12 -18 22 -18 18 0 40 8 10 15 31 16 48 1
16 7 32 13 36 6 4 9 17 6 29 -2 14 1 22 11 22 8 0 13 5 12 12 -2 7 4 12 12 13
8 0 15 5 16 10 2 27 17 43 36 40 17 -4 18 -2 6 12 -15 19 -15 20 9 39 16 14
16 14 -5 4 -13 -7 -21 -14 -18 -17 3 -3 -6 -20 -19 -38 -14 -17 -22 -35 -17
-40 4 -5 1 -5 -6 -1 -13 8 -9 19 16 49 8 9 12 17 8 17 -3 0 0 10 9 23 8 13 13
26 9 29 -3 3 0 9 7 14 8 5 10 3 4 -6 -5 -8 -4 -11 3 -6 6 3 9 16 7 27 -2 11 2
22 10 26 8 3 15 10 15 15 0 9 11 25 68 98 13 17 28 28 32 25 5 -3 7 3 5 15 -2
11 -1 19 3 17 4 -1 18 7 32 17 18 14 20 17 6 12 -19 -7 -19 -6 -1 14 10 11 25
20 33 20 9 0 12 6 8 18 -5 14 -3 13 10 -3 15 -18 16 -18 10 -2 -6 19 16 51 28
40 3 -4 6 -1 6 6 0 7 4 9 10 6 6 -3 7 1 4 9 -4 10 -1 16 9 16 8 0 22 10 30 23
l16 22 -4 -23 c-2 -13 0 -20 6 -17 5 4 7 10 4 14 -8 14 33 54 47 45 7 -4 10
-4 6 1 -7 8 20 40 33 40 5 0 17 8 28 17 11 9 21 14 24 12 2 -2 12 5 21 15 10
11 24 17 31 15 7 -3 20 5 29 18 9 12 16 19 16 14 0 -5 7 -3 15 4 8 7 15 10 15
6 0 -4 11 1 25 10 14 9 25 12 25 8 0 -5 4 -3 8 4 5 7 25 14 46 15 21 2 41 8
44 14 12 18 37 21 54 6 11 -10 18 -11 23 -3 3 6 3 9 -2 8 -4 -2 -9 1 -11 7 -1
5 10 10 25 10 16 1 43 5 60 9 18 4 35 7 38 7 2 0 18 4 35 9 18 5 30 5 30 0 0
-5 12 -4 26 2 20 9 30 9 46 -1 13 -8 18 -8 13 -1 -5 8 3 10 27 5 18 -3 38 -2
45 2 8 6 13 127 18 438 4 237 8 436 10 443 5 14 15 15 31 4z m-883 -350 l37
-38 -39 -38 -38 -38 -37 32 c-20 18 -36 36 -36 41 0 6 62 71 75 79 1 0 18 -17
38 -38z m1857 -43 c0 -4 -18 -22 -41 -40 l-41 -32 -36 36 -36 37 39 40 39 40
38 -37 c21 -20 38 -40 38 -44z m-2496 -212 c53 -30 78 -79 73 -140 -10 -112
-123 -178 -223 -131 -93 44 -117 157 -52 240 44 56 135 70 202 31z m-394 -512
c0 -33 2 -35 35 -35 31 0 35 -3 35 -25 0 -22 -4 -25 -35 -25 -33 0 -35 -2 -35
-35 0 -28 -4 -35 -20 -35 -16 0 -20 7 -20 35 0 33 -2 35 -35 35 -31 0 -35 3
-35 25 0 22 4 25 35 25 33 0 35 2 35 35 0 28 4 35 20 35 16 0 20 -7 20 -35z
m2866 -180 c1 -8 -5 -20 -14 -27 -10 -8 -13 -9 -9 -1 4 6 3 15 -3 18 -8 5 -7
11 1 21 13 16 22 12 25 -11z m-531 -397 c-4 -18 -24 -107 -45 -198 -21 -91
-51 -219 -65 -285 -15 -66 -38 -165 -51 -220 -14 -55 -32 -136 -40 -180 -8
-44 -17 -88 -20 -97 -5 -16 -24 -18 -209 -18 -185 0 -204 2 -209 18 -2 9 -21
91 -41 182 -21 91 -39 168 -41 172 -4 6 -73 303 -120 513 -13 61 -27 118 -30
128 -5 16 20 17 436 17 l442 0 -7 -32z m-2527 -32 c4 -21 -14 -37 -35 -29 -14
5 -18 35 -6 47 12 12 38 1 41 -18z m4237 -1 c0 -24 -46 -29 -52 -5 -4 12 -3
13 5 1 11 -15 42 -8 42 10 0 8 -5 7 -17 -2 -9 -8 -14 -9 -10 -2 4 6 1 14 -5
17 -7 3 -2 4 12 3 18 -1 25 -8 25 -22z m-725 -435 c0 -5 -2 -10 -4 -10 -3 0
-8 5 -11 10 -3 6 -1 10 4 10 6 0 11 -4 11 -10z m-3500 -610 c0 -8 -27 -40 -34
-40 -2 0 -11 8 -20 19 -16 17 -16 20 -1 35 12 12 21 13 36 6 10 -6 19 -15 19
-20z m4230 -2 c0 -5 -5 -6 -12 -2 -7 5 -8 3 -3 -6 10 -17 -16 -32 -32 -18 -18
15 -16 35 4 47 18 10 43 -2 43 -21z m-218 -500 c3 -29 7 -33 36 -36 28 -3 33
-7 30 -25 -2 -17 -10 -22 -33 -22 -27 0 -31 -4 -35 -35 -3 -23 -11 -36 -22
-38 -14 -3 -18 4 -18 32 0 33 -2 35 -37 38 -31 2 -39 7 -41 26 -3 20 1 22 37
22 40 0 41 1 41 35 0 28 4 35 19 35 15 0 21 -8 23 -32z m-257 -367 c48 -27 75
-76 75 -136 0 -63 -27 -109 -85 -143 -123 -71 -273 67 -220 203 34 91 140 126
230 76z m-3121 -47 c3 -8 2 -12 -4 -9 -6 3 -10 10 -10 16 0 14 7 11 14 -7z
m-53 -11 c13 -16 12 -17 -3 -4 -10 7 -18 15 -18 17 0 8 8 3 21 -13z m-234 -85
c-3 -7 -5 -2 -5 12 0 14 2 19 5 13 2 -7 2 -19 0 -25z m310 0 c-3 -8 -6 -5 -6
6 -1 11 2 17 5 13 3 -3 4 -12 1 -19z m-23 -73 c-9 -14 -18 -25 -21 -25 -5 0 5
18 20 38 17 22 18 13 1 -13z m-220 -44 c-3 -3 -15 6 -27 18 l-22 24 27 -19
c14 -10 24 -21 22 -23z m456 -92 c15 -26 7 -47 -22 -58 -16 -6 -28 -4 -40 7
-22 19 -23 36 -2 56 22 22 51 20 64 -5z m2484 5 c19 -19 20 -36 4 -52 -26 -26
-78 -7 -78 28 0 38 46 53 74 24z m-2164 -159 c29 -35 -26 -85 -58 -53 -13 13
-16 50 -5 61 12 12 50 7 63 -8z m1854 -7 c14 -23 -3 -52 -32 -56 -28 -4 -55
34 -41 60 13 24 57 21 73 -4z"/>
<path d="M3365 4781 c-3 -6 -10 -9 -15 -6 -19 12 -18 -14 1 -31 11 -10 20 -14
19 -9 -5 22 1 25 23 15 19 -9 20 -9 6 2 -9 7 -16 17 -17 21 -1 15 -10 19 -17
8z m15 -5 c0 -2 -6 -9 -14 -15 -11 -9 -16 -9 -22 0 -4 7 -3 9 4 5 6 -3 13 -2
17 4 6 10 15 14 15 6z"/>
<path d="M3462 4775 c2 -6 -7 -21 -19 -34 -27 -29 -23 -38 14 -36 17 0 28 7
28 16 0 7 9 14 20 14 11 0 25 4 32 8 6 4 14 3 17 -2 7 -10 32 -9 41 2 3 4 2 5
-2 2 -3 -3 -13 1 -21 7 -21 18 -39 18 -53 2 -10 -13 -16 -11 -36 8 -14 13 -23
18 -21 13z m19 -39 c-6 -7 -9 -15 -6 -17 2 -3 -7 -5 -20 -5 l-25 0 22 23 c21
23 48 22 29 -1z"/>
<path d="M3459 4733 c-13 -16 -12 -17 4 -4 9 7 17 15 17 17 0 8 -8 3 -21 -13z"/>
<path d="M3125 4750 c3 -5 8 -10 11 -10 2 0 4 5 4 10 0 6 -5 10 -11 10 -5 0
-7 -4 -4 -10z"/>
<path d="M2929 4733 c-13 -16 -12 -17 4 -4 9 7 17 15 17 17 0 8 -8 3 -21 -13z"/>
<path d="M3070 4741 c0 -6 4 -13 10 -16 6 -3 7 1 4 9 -7 18 -14 21 -14 7z"/>
<path d="M3028 4733 c7 -3 16 -2 19 1 4 3 -2 6 -13 5 -11 0 -14 -3 -6 -6z"/>
<path d="M3235 4731 c-3 -6 3 -9 14 -8 11 0 17 5 15 9 -7 11 -22 10 -29 -1z"/>
<path d="M2811 4716 c-6 -7 -25 -12 -42 -11 -16 1 -27 0 -24 -4 4 -3 12 -6 18
-6 7 -1 11 -6 10 -12 -1 -6 5 -10 15 -8 19 3 54 -23 47 -36 -3 -4 -1 -11 5
-14 8 -5 8 -11 0 -20 -7 -9 -6 -16 7 -26 16 -13 17 -12 4 4 -12 15 -9 21 12
18 4 0 6 4 5 11 -2 7 2 12 9 13 6 0 15 4 20 8 4 5 1 7 -7 5 -8 -1 -14 2 -13 9
1 6 -4 16 -12 23 -7 6 -11 18 -8 26 4 11 0 15 -13 12 -11 -2 -18 2 -16 10 3
16 -3 15 -17 -2z m34 -18 c5 4 5 2 2 -4 -4 -7 -1 -17 7 -23 8 -7 13 -17 12
-24 -2 -13 -16 -21 -17 -9 -1 13 -42 51 -50 47 -4 -3 -11 0 -15 6 -4 7 -3 9 4
5 6 -3 14 -2 17 4 5 8 11 8 19 1 7 -6 17 -7 21 -3z"/>
<path d="M2830 4675 c13 -14 26 -25 28 -25 3 0 -5 11 -18 25 -13 14 -26 25
-28 25 -3 0 5 -11 18 -25z"/>
<path d="M3055 4710 c-3 -5 -1 -10 4 -10 6 0 11 5 11 10 0 6 -2 10 -4 10 -3 0
-8 -4 -11 -10z"/>
<path d="M3574 4712 c4 -3 14 -7 22 -8 9 -1 13 0 10 4 -4 3 -14 7 -22 8 -9 1
-13 0 -10 -4z"/>
<path d="M3100 4699 c0 -15 18 -19 23 -6 3 8 -1 14 -9 14 -8 0 -14 -4 -14 -8z"/>
<path d="M2959 4689 c-8 -39 -7 -40 8 -27 9 7 17 11 19 8 1 -3 6 0 11 5 4 6 4
7 -1 3 -5 -4 -15 -3 -23 3 -7 6 -13 10 -14 8z"/>
<path d="M3683 4675 c4 -8 2 -17 -3 -20 -6 -4 -10 -12 -10 -18 0 -7 4 -6 10 3
9 14 15 7 11 -14 -1 -5 6 -3 15 5 9 8 19 13 22 11 3 -1 7 4 8 13 1 8 -1 13 -6
10 -4 -3 -13 2 -20 10 -16 19 -34 19 -27 0z m31 -14 c17 -19 17 -19 0 -17 -9
2 -18 10 -20 19 -3 21 -1 21 20 -2z"/>
<path d="M3645 4670 c-3 -6 1 -7 9 -4 18 7 21 14 7 14 -6 0 -13 -4 -16 -10z"/>
<path d="M2916 4661 c-4 -5 -2 -12 3 -16 5 -3 8 -15 6 -26 -4 -17 -2 -19 10
-9 14 12 19 7 16 -13 -1 -5 3 -6 9 -2 8 5 8 11 1 19 -6 7 -7 16 -3 20 4 4 0 6
-8 4 -8 -1 -14 2 -15 9 0 17 -12 26 -19 14z"/>
<path d="M3016 4662 c-3 -5 1 -9 9 -9 8 0 12 4 9 9 -3 4 -7 8 -9 8 -2 0 -6 -4
-9 -8z"/>
<path d="M2656 4642 c-3 -5 1 -9 9 -9 8 0 12 4 9 9 -3 4 -7 8 -9 8 -2 0 -6 -4
-9 -8z"/>
<path d="M3545 4641 c-3 -5 -2 -12 3 -15 5 -3 9 1 9 9 0 17 -3 19 -12 6z"/>
<path d="M3875 4640 c-3 -4 1 -13 9 -19 10 -9 16 -8 26 4 7 8 11 15 9 16 -31
6 -40 6 -44 -1z m35 -6 c0 -8 -19 -13 -24 -6 -3 5 1 9 9 9 8 0 15 -2 15 -3z"/>
<path d="M2809 4638 c-5 -18 -6 -38 -1 -34 7 8 12 36 6 36 -2 0 -4 -1 -5 -2z"/>
<path d="M3755 4624 c2 -11 4 -21 5 -24 1 -3 2 -8 1 -12 0 -3 7 -5 17 -3 9 2
20 4 25 4 4 1 7 6 7 13 0 6 -3 8 -7 5 -3 -4 -17 2 -29 14 -21 19 -22 20 -19 3z
m26 -21 c13 -16 12 -17 -3 -4 -17 13 -22 21 -14 21 2 0 10 -8 17 -17z"/>
<path d="M2544 4618 c-5 -7 -9 -17 -9 -23 0 -5 -6 -11 -12 -11 -7 -1 -16 -3
-20 -4 -5 -1 -11 -2 -15 -1 -5 0 -7 -2 -7 -6 3 -21 -3 -24 -18 -12 -9 8 -7 0
7 -18 28 -39 32 -40 26 -9 -6 34 4 40 30 15 21 -19 22 -20 20 -3 -4 22 22 56
35 48 5 -3 6 -11 2 -17 -5 -8 -2 -8 9 0 8 7 18 11 21 8 4 -3 5 -2 2 2 -3 3 3
16 12 27 15 17 15 19 1 8 -11 -9 -18 -10 -23 -2 -5 8 -11 8 -19 1 -9 -7 -16
-7 -23 0 -8 8 -13 7 -19 -3z m7 -32 c-12 -12 -18 -26 -14 -29 3 -4 4 -7 1 -7
-3 0 -12 8 -19 17 -8 10 -9 14 -2 10 11 -7 26 7 29 26 1 4 2 10 3 13 0 3 6 2
12 -1 7 -5 3 -15 -10 -29z m53 13 c-3 -5 -10 -7 -15 -3 -5 3 -7 10 -3 15 3 5
10 7 15 3 5 -3 7 -10 3 -15z"/>
<path d="M3055 4621 c-3 -5 0 -13 6 -17 8 -5 9 -3 4 6 -6 10 -4 12 9 7 10 -4
15 -3 11 3 -8 13 -22 13 -30 1z"/>
<path d="M3847 4603 c3 -7 6 -13 8 -13 2 0 5 6 8 13 3 8 -1 14 -8 14 -7 0 -11
-6 -8 -14z"/>
<path d="M3920 4594 c13 -20 44 -26 67 -11 6 4 14 3 17 -2 8 -12 -19 -33 -29
-23 -5 4 -5 1 -1 -6 6 -11 12 -10 27 4 26 23 8 44 -32 37 -17 -2 -37 1 -46 9
-15 12 -15 11 -3 -8z"/>
<path d="M3654 4592 c4 -3 14 -7 22 -8 9 -1 13 0 10 4 -4 3 -14 7 -22 8 -9 1
-13 0 -10 -4z"/>
<path d="M3705 4590 c-3 -5 -1 -11 5 -15 6 -4 8 -10 5 -15 -3 -4 3 -7 12 -6
23 4 23 38 1 42 -10 1 -20 -2 -23 -6z m32 -17 c0 -9 -4 -10 -14 -2 -7 6 -13
12 -13 14 0 1 6 2 13 2 8 0 14 -6 14 -14z"/>
<path d="M3890 4593 c0 -6 5 -15 10 -18 6 -4 8 -10 5 -15 -3 -5 -1 -11 4 -14
12 -8 8 14 -7 39 -6 11 -12 15 -12 8z"/>
<path d="M3105 4570 c-3 -4 5 -7 18 -6 12 0 21 -4 20 -10 -1 -6 5 -11 13 -11
12 0 12 3 -1 17 -15 17 -42 22 -50 10z"/>
<path d="M3855 4549 c-3 -3 3 -13 13 -20 9 -7 14 -9 10 -5 -4 5 -3 14 2 21 7
8 5 12 -6 12 -8 0 -17 -4 -19 -8z"/>
<path d="M2656 4528 c3 -5 10 -6 15 -3 13 9 11 12 -6 12 -8 0 -12 -4 -9 -9z"/>
<path d="M3053 4525 c0 -8 4 -12 9 -9 5 3 6 10 3 15 -9 13 -12 11 -12 -6z"/>
<path d="M2516 4517 c3 -10 9 -15 12 -12 3 3 0 11 -7 18 -10 9 -11 8 -5 -6z"/>
<path d="M2576 4508 c3 -5 10 -6 15 -3 13 9 11 12 -6 12 -8 0 -12 -4 -9 -9z"/>
<path d="M2795 4511 c-3 -5 -2 -12 3 -15 5 -3 9 1 9 9 0 17 -3 19 -12 6z"/>
<path d="M3903 4498 c-13 -15 -14 -19 -3 -16 8 2 15 -3 16 -9 1 -7 2 -16 3
-20 0 -3 10 2 22 13 12 10 23 17 24 14 2 -3 7 -1 12 4 4 5 3 6 -3 3 -12 -7
-38 16 -29 25 3 2 -2 5 -10 5 -8 0 -23 -9 -32 -19z m36 -2 c9 -10 7 -17 -6
-27 -9 -8 -14 -9 -10 -2 4 6 3 14 -3 18 -6 4 -8 11 -5 16 8 12 10 12 24 -5z"/>
<path d="M4095 4510 c-4 -6 -1 -9 7 -8 7 2 12 -3 10 -10 -1 -8 2 -11 8 -7 8 5
7 11 -1 21 -14 17 -16 17 -24 4z"/>
<path d="M2470 4501 c0 -6 4 -13 10 -16 6 -3 7 1 4 9 -7 18 -14 21 -14 7z"/>
<path d="M3753 4503 c4 -6 2 -15 -3 -18 -8 -5 -6 -13 4 -24 9 -10 14 -21 11
-24 -3 -4 0 -3 7 3 19 16 17 37 -5 57 -11 10 -17 13 -14 6z m23 -39 c2 -12 -1
-13 -12 -3 -7 6 -11 16 -8 21 7 11 17 3 20 -18z"/>
<path d="M3833 4493 c0 -9 4 -10 14 -2 7 6 13 12 13 14 0 1 -6 2 -13 2 -8 0
-14 -6 -14 -14z"/>
<path d="M3996 4502 c-3 -5 1 -9 9 -9 8 0 12 4 9 9 -3 4 -7 8 -9 8 -2 0 -6 -4
-9 -8z"/>
<path d="M2822 4490 c2 -9 -3 -14 -11 -12 -11 2 -12 0 -3 -11 7 -8 9 -16 6
-20 -3 -3 1 -4 10 -3 9 1 22 8 29 15 9 10 9 12 -3 9 -8 -2 -14 2 -15 9 0 6 -4
15 -8 20 -5 4 -7 1 -5 -7z"/>
<path d="M2875 4481 c-3 -5 -2 -12 3 -15 5 -3 9 1 9 9 0 17 -3 19 -12 6z"/>
<path d="M3975 4460 c-10 -11 -15 -21 -12 -21 4 -1 13 -2 20 -3 7 -1 12 -14
11 -33 0 -18 3 -30 8 -27 5 3 6 9 3 14 -3 5 -1 12 5 15 8 5 8 11 0 20 -7 8 -7
16 -2 19 6 3 15 -1 22 -9 7 -8 9 -15 5 -15 -4 0 -2 -6 4 -13 6 -8 7 -18 3 -22
-4 -5 -1 -5 6 -1 10 6 10 11 1 22 -11 13 -6 18 14 15 5 -1 6 3 3 8 -4 5 -2 12
4 16 6 4 8 11 4 16 -4 6 -11 6 -20 -2 -12 -10 -18 -6 -16 12 1 3 -5 6 -13 6
-8 0 -13 -3 -12 -6 1 -3 -2 -7 -8 -8 -5 -2 -9 2 -7 7 3 15 -3 12 -23 -10z m19
-8 c3 -5 -1 -9 -9 -9 -8 0 -12 4 -9 9 3 4 7 8 9 8 2 0 6 -4 9 -8z m65 1 c14
11 14 10 2 -6 -10 -13 -17 -15 -27 -6 -8 6 -14 14 -14 17 0 3 5 1 12 -6 9 -9
15 -9 27 1z"/>
<path d="M3820 4405 c-7 -8 -17 -12 -23 -8 -6 4 -7 1 -3 -6 6 -9 13 -8 27 5
10 9 19 19 19 21 0 7 -8 2 -20 -12z"/>
<path d="M3861 4406 c-8 -10 -9 -16 -1 -21 5 -3 10 -5 11 -3 4 18 7 38 4 38
-1 0 -8 -6 -14 -14z"/>
<path d="M2296 4388 c3 -5 10 -6 15 -3 13 9 11 12 -6 12 -8 0 -12 -4 -9 -9z"/>
<path d="M2656 4391 c-4 -5 -2 -12 3 -15 5 -4 12 -2 15 3 4 5 2 12 -3 15 -5 4
-12 2 -15 -3z"/>
<path d="M2364 4371 c9 -10 13 -21 9 -25 -4 -3 -8 -13 -9 -22 -2 -11 1 -12 10
-5 7 6 17 7 22 3 4 -4 3 0 -4 9 -8 11 -8 19 -1 26 11 11 -3 25 -29 29 -10 2
-10 -2 2 -15z"/>
<path d="M2746 4378 c3 -5 10 -6 15 -3 13 9 11 12 -6 12 -8 0 -12 -4 -9 -9z"/>
<path d="M2442 4347 c-9 -10 -6 -13 13 -13 19 0 22 3 13 13 -6 7 -12 13 -13
13 -1 0 -7 -6 -13 -13z"/>
<path d="M3916 4351 c-4 -5 -2 -13 4 -16 8 -5 7 -11 -1 -21 -6 -7 -16 -11 -23
-7 -7 4 -6 1 1 -9 7 -8 11 -18 8 -21 -3 -4 -2 -4 3 -1 4 3 7 9 7 12 1 17 17
32 28 25 7 -4 5 1 -3 12 -8 10 -13 20 -12 22 2 3 1 7 -1 9 -3 3 -8 1 -11 -5z"/>
<path d="M2274 4313 c2 -10 5 -16 8 -13 3 3 16 -4 29 -15 16 -13 14 -8 -5 13
-35 37 -35 38 -32 15z"/>
<path d="M3954 4268 c-10 -13 -15 -20 -10 -16 5 4 14 4 21 -2 8 -6 11 -2 11
15 0 14 -1 25 -1 25 -1 0 -10 -10 -21 -22z"/>
<path d="M2275 4270 c-4 -6 -10 -8 -14 -6 -4 3 -8 -1 -8 -9 0 -8 3 -13 5 -10
8 8 32 -16 26 -26 -3 -5 0 -8 8 -7 7 2 12 -3 10 -10 -1 -8 2 -11 8 -7 8 5 8
11 1 19 -6 7 -9 16 -6 19 3 4 2 5 -2 2 -3 -3 -12 0 -20 6 -10 9 -10 15 -2 25
6 8 9 14 6 14 -3 0 -9 -5 -12 -10z"/>
<path d="M4305 4260 c-4 -6 -10 -8 -15 -5 -5 3 -11 1 -14 -4 -4 -5 -2 -12 3
-15 5 -4 13 -2 16 4 5 8 11 8 20 0 9 -8 15 -8 20 0 4 6 1 9 -7 8 -7 -2 -12 3
-10 10 3 15 -4 16 -13 2z"/>
<path d="M2525 4250 c-4 -6 -11 -8 -16 -5 -16 10 -10 -2 9 -16 9 -7 14 -9 10
-5 -4 5 -3 15 3 23 6 7 9 13 6 13 -3 0 -9 -5 -12 -10z"/>
<path d="M4049 4232 c-11 -14 -11 -15 1 -5 11 10 18 9 36 -8 21 -19 22 -20 20
-3 -2 11 -7 19 -12 19 -5 0 -14 4 -20 8 -7 4 -18 -1 -25 -11z"/>
<path d="M4183 4238 c1 -7 -3 -12 -10 -13 -21 0 -24 -12 -6 -26 10 -7 15 -9
11 -5 -11 13 12 37 26 29 6 -4 5 1 -3 10 -16 20 -22 22 -18 5z"/>
<path d="M2345 4201 c-3 -5 -2 -12 3 -15 5 -3 9 1 9 9 0 17 -3 19 -12 6z"/>
<path d="M2140 4186 c0 -2 7 -9 15 -16 9 -7 15 -8 15 -2 0 5 -7 12 -15 16 -8
3 -15 4 -15 2z"/>
<path d="M2190 4181 c0 -6 4 -13 10 -16 6 -3 7 1 4 9 -7 18 -14 21 -14 7z"/>
<path d="M2216 4178 c3 -5 10 -6 15 -3 13 9 11 12 -6 12 -8 0 -12 -4 -9 -9z"/>
<path d="M4131 4173 c3 -21 -3 -24 -18 -12 -16 13 -17 12 -4 -4 9 -12 17 -14
26 -7 6 5 16 6 21 2 4 -4 2 1 -5 11 -14 18 -22 22 -20 10z"/>
<path d="M4243 4163 c0 -9 4 -10 14 -2 7 6 13 12 13 14 0 1 -6 2 -13 2 -8 0
-14 -6 -14 -14z"/>
<path d="M2305 4160 c-3 -5 -3 -10 1 -10 4 0 -3 -11 -15 -24 l-22 -23 23 1
c13 0 22 -4 21 -10 -1 -6 4 -11 12 -11 8 0 14 3 13 6 -2 18 4 22 17 11 8 -7
12 -17 8 -23 -4 -6 -1 -7 6 -3 9 6 8 13 -5 27 -12 14 -21 16 -30 8 -8 -6 -14
-6 -18 0 -4 5 -2 13 4 16 8 5 8 11 1 19 -6 7 -8 16 -4 19 3 4 4 7 0 7 -3 0 -9
-4 -12 -10z m15 -24 c0 -2 -8 -10 -17 -17 -16 -13 -17 -12 -4 4 13 16 21 21
21 13z"/>
<path d="M4335 4161 c-3 -5 -2 -12 3 -15 5 -3 9 1 9 9 0 17 -3 19 -12 6z"/>
<path d="M4393 4159 c-13 -5 -23 -10 -23 -13 0 -2 10 -2 23 2 22 5 22 5 3 -16
-10 -12 -24 -19 -30 -15 -6 4 -6 0 1 -9 7 -8 9 -19 5 -23 -4 -5 -1 -5 6 -1 7
4 10 11 7 15 -6 10 29 43 38 35 3 -3 4 1 3 10 -3 22 -8 25 -33 15z"/>
<path d="M2223 4137 c1 -7 -3 -11 -9 -10 -6 1 -11 -5 -11 -12 0 -10 4 -12 12
-5 7 5 15 6 19 2 4 -4 6 0 4 8 -2 9 3 14 12 12 8 -2 11 0 7 4 -12 13 -37 13
-34 1z"/>
<path d="M2139 4118 c7 -10 10 -18 6 -18 -4 0 -2 -7 5 -15 10 -12 16 -13 26
-4 11 9 12 15 3 26 -7 7 -14 11 -17 8 -3 -3 -12 1 -21 8 -14 11 -14 10 -2 -5z
m35 -29 c-3 -5 -10 -7 -15 -3 -5 3 -7 10 -3 15 3 5 10 7 15 3 5 -3 7 -10 3
-15z"/>
<path d="M4407 4099 c7 -7 15 -10 18 -7 3 3 -2 9 -12 12 -14 6 -15 5 -6 -5z"/>
<path d="M4445 4083 c1 -10 -2 -24 -8 -31 -8 -10 -7 -12 3 -10 8 2 14 -3 15
-9 0 -7 3 -13 8 -13 4 0 10 0 13 0 4 0 2 6 -3 13 -6 6 -9 20 -8 29 2 9 -3 22
-10 28 -10 9 -13 7 -10 -7z"/>
<path d="M4244 4068 c-19 -23 -19 -23 2 -6 16 14 23 15 34 5 12 -10 12 -9 1 6
-17 21 -14 21 -37 -5z"/>
<path d="M4349 4088 c-5 -18 -6 -38 -1 -34 7 8 12 36 6 36 -2 0 -4 -1 -5 -2z"/>
<path d="M4312 4035 c4 -4 3 -14 -3 -21 -7 -9 -6 -14 3 -20 7 -4 10 -4 6 1 -4
4 -3 14 3 21 7 9 6 14 -3 20 -7 4 -10 4 -6 -1z"/>
<path d="M2130 4015 c-10 -12 -16 -13 -29 -3 -10 8 -9 5 3 -10 11 -12 16 -22
11 -22 -4 0 -2 -7 5 -15 7 -8 9 -15 5 -15 -4 0 -2 -6 4 -13 6 -8 8 -16 5 -20
-3 -3 2 -4 13 -3 23 4 24 25 3 51 -18 22 -19 33 -7 53 11 17 2 15 -13 -3z m27
-80 c0 -11 -4 -12 -14 -3 -7 6 -11 13 -8 16 3 3 -1 12 -7 21 -10 12 -7 12 8
-2 11 -9 21 -24 21 -32z"/>
<path d="M4243 4023 c4 -3 2 -12 -4 -19 -7 -9 -6 -12 8 -9 10 1 25 -2 33 -8 8
-6 4 1 -9 16 -14 15 -27 27 -29 27 -3 0 -2 -3 1 -7z"/>
<path d="M4166 3998 c3 -5 9 -7 12 -4 3 3 12 0 21 -6 13 -10 14 -10 4 2 -15
16 -46 23 -37 8z"/>
<path d="M4499 4008 c-6 -21 -5 -38 1 -38 5 0 8 9 7 20 -1 17 -5 26 -8 18z"/>
<path d="M2055 3991 c-3 -5 -2 -12 3 -15 5 -3 9 1 9 9 0 17 -3 19 -12 6z"/>
<path d="M4446 3988 c3 -5 10 -6 15 -3 13 9 11 12 -6 12 -8 0 -12 -4 -9 -9z"/>
<path d="M4225 3971 c-3 -5 -2 -12 3 -15 5 -3 9 1 9 9 0 17 -3 19 -12 6z"/>
<path d="M4495 3950 c-3 -5 -3 -10 1 -10 4 0 -3 -12 -17 -27 -13 -16 -15 -20
-5 -11 14 12 25 14 42 8 14 -6 26 -5 29 0 4 6 -5 10 -19 10 -19 0 -24 4 -21
20 4 22 0 26 -10 10z"/>
<path d="M4521 3944 c0 -11 3 -14 6 -6 3 7 2 16 -1 19 -3 4 -6 -2 -5 -13z"/>
<path d="M1964 3903 c3 -4 0 -13 -6 -22 -10 -12 -7 -12 8 2 11 9 23 16 25 15
2 -2 3 -1 1 1 -1 3 -10 6 -18 7 -9 1 -13 0 -10 -3z"/>
<path d="M4306 3898 c3 -5 10 -6 15 -3 13 9 11 12 -6 12 -8 0 -12 -4 -9 -9z"/>
<path d="M2223 3875 c0 -8 4 -12 9 -9 5 3 6 10 3 15 -9 13 -12 11 -12 -6z"/>
<path d="M4494 3866 c1 -14 4 -28 7 -31 3 -3 5 6 5 19 -1 14 -4 28 -7 31 -3 3
-5 -6 -5 -19z"/>
<path d="M4439 3863 c-12 -16 -12 -17 2 -6 18 15 30 8 22 -13 -3 -8 -3 -14 0
-14 12 0 14 30 3 39 -10 8 -17 7 -27 -6z"/>
<path d="M1966 3851 c-14 -15 -15 -21 -4 -27 7 -4 10 -3 5 1 -4 5 0 17 10 27
9 10 14 18 11 18 -3 0 -13 -9 -22 -19z"/>
<path d="M4237 3849 c4 -13 8 -18 11 -10 2 7 -1 18 -6 23 -8 8 -9 4 -5 -13z"/>
<path d="M4286 3842 c-3 -5 1 -9 9 -9 8 0 12 4 9 9 -3 4 -7 8 -9 8 -2 0 -6 -4
-9 -8z"/>
<path d="M4550 3839 c0 -5 5 -7 10 -4 6 3 10 8 10 11 0 2 -4 4 -10 4 -5 0 -10
-5 -10 -11z"/>
<path d="M4453 3803 c0 -9 4 -10 14 -2 7 6 13 12 13 14 0 1 -6 2 -13 2 -8 0
-14 -6 -14 -14z"/>
<path d="M2143 3785 c0 -8 4 -12 9 -9 5 3 6 10 3 15 -9 13 -12 11 -12 -6z"/>
<path d="M2109 3753 c-13 -16 -12 -17 4 -4 9 7 17 15 17 17 0 8 -8 3 -21 -13z"/>
<path d="M4489 3723 c-13 -16 -12 -17 4 -4 9 7 17 15 17 17 0 8 -8 3 -21 -13z"/>
<path d="M4545 3720 c-4 -6 -10 -8 -15 -5 -5 3 -11 1 -14 -4 -4 -5 -2 -12 4
-16 6 -4 8 -10 5 -15 -3 -5 0 -12 7 -16 7 -4 10 -4 6 1 -4 4 -3 14 3 22 6 7 8
13 4 13 -4 0 -2 7 5 15 7 8 10 15 7 15 -3 0 -9 -5 -12 -10z"/>
<path d="M4570 3706 c0 -2 8 -10 18 -17 15 -13 16 -12 3 4 -13 16 -21 21 -21
13z"/>
<path d="M2053 3683 c0 -9 4 -10 14 -2 7 6 13 12 13 14 0 1 -6 2 -13 2 -8 0
-14 -6 -14 -14z"/>
<path d="M4444 3658 l-19 -23 23 19 c21 18 27 26 19 26 -2 0 -12 -10 -23 -22z"/>
<path d="M4312 3564 c-1 -14 2 -23 7 -20 5 4 8 13 7 21 -4 25 -12 25 -14 -1z"/>
<path d="M1929 3563 c-13 -16 -12 -17 4 -4 9 7 17 15 17 17 0 8 -8 3 -21 -13z"/>
<path d="M4465 3543 c3 -3 0 -12 -5 -18 -7 -9 -6 -16 3 -24 11 -9 14 -6 13 14
-1 13 -5 27 -9 30 -4 3 -5 2 -2 -2z"/>
<path d="M4495 3541 c-3 -5 -2 -12 3 -15 5 -3 9 1 9 9 0 17 -3 19 -12 6z"/>
<path d="M4429 3538 c-5 -18 -6 -38 -1 -34 7 8 12 36 6 36 -2 0 -4 -1 -5 -2z"/>
<path d="M4520 3526 c0 -2 8 -10 18 -17 15 -13 16 -12 3 4 -13 16 -21 21 -21
13z"/>
<path d="M4496 3501 c-4 -5 -2 -12 3 -15 5 -4 12 -2 15 3 4 5 2 12 -3 15 -5 4
-12 2 -15 -3z"/>
<path d="M4369 3499 c-8 -39 -7 -40 8 -27 9 7 17 11 19 8 1 -3 6 0 11 5 4 6 4
7 -1 3 -5 -4 -15 -3 -23 3 -7 6 -13 10 -14 8z"/>
<path d="M4185 4381 c-3 -5 -2 -12 3 -15 5 -3 9 1 9 9 0 17 -3 19 -12 6z"/>
</g>
</svg>
